# xmcd CD database file
#
# Track frame offsets:
#	150
#	31638
#	59636
#	77386
#	94765
#	111965
#	135659
#	156901
#	199636
#
# Disc length: 3028 seconds
#
# Revision: 0
# Processed by: cddbd v1.5.2PL0 Copyright (c) Steve Scherf et al.
# Submitted via: CDex 1.51
#
DISCID=6c0bd209
DTITLE=Guillermo McGill Quartet - Tancerca
DYEAR=2008
DGENRE=Jazz
TTITLE0=A Remark you Made
TTITLE1=La Sonrisa de Miguel
TTITLE2=Con Cudadito
TTITLE3=La Duna 
TTITLE4=Grito de Corazon
TTITLE5=Tersky
TTITLE6=TanCerca
TTITLE7=Tu Marina Soledad
TTITLE8=Por La Vida
EXTD=YEAR: 2008
EXTT0=
EXTT1=
EXTT2=
EXTT3=
EXTT4=
EXTT5=
EXTT6=
EXTT7=
EXTT8=
PLAYORDER=
